# xmcd
#
# Track frame offsets: 
#        182
#        18677
#        38140
#        55620
#        67710
#        86590
#        117202
#        119677
#        131117
#        140535
#
# Disc length: 2003 seconds
#
# Revision: 0
# Processed by: cddbd v1.5.2PL0 Copyright (c) Steve Scherf et al.
# Submitted via: ExactAudioCopyFreeDBPlugin 1.0
#
DISCID=8907d10a
DTITLE=Peter Kraus - Cadillac Night
DYEAR=1989
DGENRE=Pop
TTITLE0=Cadilac Night
TTITLE1=Guitar Man
TTITLE2=Rock'n Roll Medizin
TTITLE3=Du weiﬂt schon
TTITLE4=Let's Rock, Let's Roll
TTITLE5=Rock'n Roll-Paty Medley (Maxi Version)
TTITLE6=Vorw‰rts in die Fities
TTITLE7=Sugar baby
TTITLE8=Kitty-Cat
TTITLE9=Mit Siebzehn
EXTD=
EXTT0=
EXTT1=
EXTT2=
EXTT3=
EXTT4=
EXTT5=
EXTT6=
EXTT7=
EXTT8=
EXTT9=
PLAYORDER=
